<svg width="76" height="76" viewBox="0 0 76 76" fill="none" xmlns="http://www.w3.org/2000/svg">
<path d="M38 19C35.6513 19 33.3554 19.6965 31.4026 21.0013C29.4498 22.3061 27.9277 24.1608 27.0289 26.3306C26.1301 28.5005 25.895 30.8882 26.3532 33.1917C26.8114 35.4952 27.9424 37.6111 29.6031 39.2719C31.2639 40.9326 33.3798 42.0636 35.6833 42.5218C37.9868 42.98 40.3745 42.7449 42.5444 41.8461C44.7142 40.9473 46.5689 39.4252 47.8737 37.4724C49.1785 35.5196 49.875 33.2237 49.875 30.875C49.875 27.7256 48.6239 24.7051 46.3969 22.4781C44.1699 20.2511 41.1494 19 38 19Z" fill="white"/>
<path d="M38 4.75C31.4238 4.75 24.9952 6.70008 19.5273 10.3536C14.0594 14.0072 9.79762 19.2001 7.28101 25.2758C4.76439 31.3514 4.10593 38.0369 5.38889 44.4868C6.67185 50.9366 9.8386 56.8612 14.4887 61.5113C19.1388 66.1614 25.0634 69.3282 31.5132 70.6111C37.9631 71.8941 44.6486 71.2356 50.7242 68.719C56.7999 66.2024 61.9928 61.9406 65.6464 56.4727C69.2999 51.0048 71.25 44.5762 71.25 38C71.2399 29.1846 67.7336 20.7332 61.5002 14.4998C55.2668 8.2664 46.8154 4.76006 38 4.75V4.75ZM56.981 59.1993C56.9337 56.084 55.6644 53.1121 53.4468 50.9238C51.2291 48.7354 48.2406 47.5059 45.125 47.5H30.875C27.7594 47.5059 24.7709 48.7354 22.5532 50.9238C20.3356 53.1121 19.0663 56.084 19.019 59.1993C14.7121 55.3535 11.6749 50.2903 10.3095 44.6801C8.9441 39.0698 9.31499 33.1772 11.373 27.7824C13.431 22.3876 17.0791 17.7452 21.8343 14.4698C26.5894 11.1945 32.2272 9.44069 38.0012 9.44069C43.7752 9.44069 49.413 11.1945 54.1681 14.4698C58.9232 17.7452 62.5713 22.3876 64.6294 27.7824C66.6874 33.1772 67.0583 39.0698 65.6929 44.6801C64.3275 50.2903 61.2903 55.3535 56.9834 59.1993H56.981Z" fill="white"/>
</svg>
