<svg width="121" height="73" viewBox="0 0 121 73" fill="none" xmlns="http://www.w3.org/2000/svg">
<g filter="url(#filter0_d_9_16)">
<rect x="39.3077" y="30.5056" width="29.383" height="29.383" transform="rotate(-45 39.3077 30.5056)" fill="#1F3876"/>
</g>
<rect x="39.7232" y="26.3923" width="28.7953" height="28.7953" transform="rotate(-45 39.7232 26.3923)" fill="#EEEEEE" stroke="#1F3876" stroke-width="0.58766"/>
<rect x="45.1843" y="26.4302" width="21.1255" height="21.1255" transform="rotate(-45 45.1843 26.4302)" fill="#1F3876"/>
<rect x="51.0609" y="26.0603" width="13.1229" height="13.1229" transform="rotate(-45 51.0609 26.0603)" fill="#1F3876"/>
<rect x="51.4764" y="26.0603" width="12.5353" height="12.5353" transform="rotate(-45 51.4764 26.0603)" stroke="#EEEEEE" stroke-opacity="0.5" stroke-width="0.58766"/>
<path d="M10.8824 55.9541H7.32451V61.6616H5.61968V55.9541H2.37062V54.5582H10.8824V55.9541ZM12.2416 54.5582H13.7982V61.6616H12.2416V54.5582ZM15.7765 55.4106L17.2219 54.5582H19.7791V55.9541H17.3825V60.2162H19.7297V61.6616H17.2219L15.7765 60.8216V55.4106ZM22.7317 59.3638V60.2162H20.3845V61.6616H22.8923L24.3377 60.8216V59.3638H22.7317ZM24.3377 56.8189V55.4106L22.8923 54.5582H20.335V55.9541H22.7317V56.8189H24.3377ZM26.5557 54.5582H28.1123V57.4119H28.8041V58.8202H28.1123V61.6616H26.5557V54.5582ZM30.5089 58.1161L35.0675 55.2623L33.6097 54.5582L29.2612 57.4119V58.8202L33.6097 61.6616L35.0675 60.9575L30.5089 58.1161ZM36.4243 54.5582H40.3775V56.0159H37.9809V57.4119H40.3775V58.8202H37.9809V60.2656H40.3281V61.6616H36.4243V54.5582ZM40.9828 60.2656V61.6616H44.9361V60.2656H40.9828ZM44.9361 56.0159V54.5582H40.9334V56.0159H44.9361ZM42.9348 58.8202V57.4119H40.9334V58.8202H42.9348ZM54.1933 55.9541H50.6354V61.6616H48.9305V55.9541H45.6815V54.5582H54.1933V55.9541ZM59.1327 55.4106L60.541 54.5582H63.0859V56.0159H60.6398V57.4119H63.0859V58.8573H60.541L59.1327 58.0172V55.4106ZM67.6445 58.2643L66.1867 57.4119H63.6418V58.8573H66.0879V60.2656H63.6912V61.6616H66.1867L67.6445 60.8216V58.2643ZM60.6893 59.4132V60.2656H63.0859V61.6616H60.5781L59.1327 60.8216V59.4132H60.6893ZM67.6445 56.856V55.4106L66.1867 54.5582H63.6418V56.0159H66.0879V56.856H67.6445ZM73.4851 58.4126V61.6616H72.0892V58.4126L68.5313 55.0153L69.9396 54.5582L72.781 57.2637L75.6471 54.5582L77.0431 55.0153L73.4851 58.4126ZM77.9289 55.4106L79.3372 54.5582H81.8821V56.0159H79.436V57.4119H81.8821V58.8573H79.3372L77.9289 58.0172V55.4106ZM86.4407 58.2643L84.9829 57.4119H82.438V58.8573H84.8841V60.2656H82.4874V61.6616H84.9829L86.4407 60.8216V58.2643ZM79.4854 59.4132V60.2656H81.8821V61.6616H79.3743L77.9289 60.8216V59.4132H79.4854ZM86.4407 56.856V55.4106L84.9829 54.5582H82.438V56.0159H84.8841V56.856H86.4407ZM96.1891 55.9541H92.6312V61.6616H90.9264V55.9541H87.6773V54.5582H96.1891V55.9541ZM97.7954 54.5582H101.749V56.0159H99.352V57.4119H101.749V58.8202H99.352V60.2656H101.699V61.6616H97.7954V54.5582ZM102.354 60.2656V61.6616H106.307V60.2656H102.354ZM106.307 56.0159V54.5582H102.305V56.0159H106.307ZM104.306 58.8202V57.4119H102.305V58.8202H104.306ZM107.917 54.5582H109.326L111.871 56.9548V58.8202L109.474 56.5595V61.6616H107.917V54.5582ZM116.429 54.5582H115.033L112.476 56.9548V58.8202L114.873 56.5595V61.6616H116.429V54.5582Z" fill="#1F3876"/>
<path d="M58.9577 25.0995H57.773V27H57.2053V25.0995H56.1234V24.6347H58.9577V25.0995ZM60.6032 24.9185L61.0722 24.6347H61.9196V25.1201H61.1051V25.5849H61.9196V26.0662H61.0722L60.6032 25.7865V24.9185ZM63.4375 25.8688L62.9521 25.5849H62.1047V26.0662H62.9192V26.5352H62.1212V27H62.9521L63.4375 26.7203V25.8688ZM61.1216 26.2513V26.5352H61.9196V27H61.0845L60.6032 26.7203V26.2513H61.1216ZM63.4375 25.3998V24.9185L62.9521 24.6347H62.1047V25.1201H62.9192V25.3998H63.4375Z" fill="#EEEEEE"/>
<defs>
<filter id="filter0_d_9_16" x="35.3077" y="7.72876" width="49.5538" height="49.5537" filterUnits="userSpaceOnUse" color-interpolation-filters="sRGB">
<feFlood flood-opacity="0" result="BackgroundImageFix"/>
<feColorMatrix in="SourceAlpha" type="matrix" values="0 0 0 0 0 0 0 0 0 0 0 0 0 0 0 0 0 0 127 0" result="hardAlpha"/>
<feOffset dy="2"/>
<feGaussianBlur stdDeviation="2"/>
<feComposite in2="hardAlpha" operator="out"/>
<feColorMatrix type="matrix" values="0 0 0 0 0.0162847 0 0 0 0 0.29815 0 0 0 0 0.558333 0 0 0 0.25 0"/>
<feBlend mode="normal" in2="BackgroundImageFix" result="effect1_dropShadow_9_16"/>
<feBlend mode="normal" in="SourceGraphic" in2="effect1_dropShadow_9_16" result="shape"/>
</filter>
</defs>
</svg>
