<svg width="120" height="60" viewBox="0 0 120 60" fill="none" xmlns="http://www.w3.org/2000/svg">
<g filter="url(#filter0_d_9_16)">
<rect x="39" y="26.8901" width="29.383" height="29.383" transform="rotate(-45 39 26.8901)" fill="#1F3876"/>
</g>
<rect x="39.4155" y="22.7769" width="28.7953" height="28.7953" transform="rotate(-45 39.4155 22.7769)" fill="#EEEEEE" stroke="#1F3876" stroke-width="0.58766"/>
<rect x="44.8766" y="22.8147" width="21.1255" height="21.1255" transform="rotate(-45 44.8766 22.8147)" fill="#1F3876"/>
<rect x="50.7532" y="22.4448" width="13.1229" height="13.1229" transform="rotate(-45 50.7532 22.4448)" fill="#1F3876"/>
<rect x="51.1687" y="22.4448" width="12.5353" height="12.5353" transform="rotate(-45 51.1687 22.4448)" stroke="#EEEEEE" stroke-opacity="0.5" stroke-width="0.58766"/>
<path d="M10.8824 52.2925H7.32451V58H5.61968V52.2925H2.37062V50.8965H10.8824V52.2925ZM12.2416 50.8965H13.7982V58H12.2416V50.8965ZM15.7765 51.749L17.2219 50.8965H19.7791V52.2925H17.3825V56.5546H19.7297V58H17.2219L15.7765 57.1599V51.749ZM22.7317 55.7022V56.5546H20.3845V58H22.8923L24.3377 57.1599V55.7022H22.7317ZM24.3377 53.1573V51.749L22.8923 50.8965H20.335V52.2925H22.7317V53.1573H24.3377ZM26.5557 50.8965H28.1123V53.7503H28.8041V55.1586H28.1123V58H26.5557V50.8965ZM30.5089 54.4544L35.0675 51.6007L33.6097 50.8965L29.2612 53.7503V55.1586L33.6097 58L35.0675 57.2958L30.5089 54.4544ZM36.4243 50.8965H40.3775V52.3543H37.9809V53.7503H40.3775V55.1586H37.9809V56.604H40.3281V58H36.4243V50.8965ZM40.9828 56.604V58H44.9361V56.604H40.9828ZM44.9361 52.3543V50.8965H40.9334V52.3543H44.9361ZM42.9348 55.1586V53.7503H40.9334V55.1586H42.9348ZM54.1933 52.2925H50.6354V58H48.9305V52.2925H45.6815V50.8965H54.1933V52.2925ZM59.1327 51.749L60.541 50.8965H63.0859V52.3543H60.6398V53.7503H63.0859V55.1957H60.541L59.1327 54.3556V51.749ZM67.6445 54.6027L66.1867 53.7503H63.6418V55.1957H66.0879V56.604H63.6912V58H66.1867L67.6445 57.1599V54.6027ZM60.6893 55.7516V56.604H63.0859V58H60.5781L59.1327 57.1599V55.7516H60.6893ZM67.6445 53.1944V51.749L66.1867 50.8965H63.6418V52.3543H66.0879V53.1944H67.6445ZM73.4851 54.7509V58H72.0892V54.7509L68.5313 51.3536L69.9396 50.8965L72.781 53.602L75.6471 50.8965L77.0431 51.3536L73.4851 54.7509ZM77.9289 51.749L79.3372 50.8965H81.8821V52.3543H79.436V53.7503H81.8821V55.1957H79.3372L77.9289 54.3556V51.749ZM86.4407 54.6027L84.9829 53.7503H82.438V55.1957H84.8841V56.604H82.4874V58H84.9829L86.4407 57.1599V54.6027ZM79.4854 55.7516V56.604H81.8821V58H79.3743L77.9289 57.1599V55.7516H79.4854ZM86.4407 53.1944V51.749L84.9829 50.8965H82.438V52.3543H84.8841V53.1944H86.4407ZM96.1891 52.2925H92.6312V58H90.9264V52.2925H87.6773V50.8965H96.1891V52.2925ZM97.7954 50.8965H101.749V52.3543H99.352V53.7503H101.749V55.1586H99.352V56.604H101.699V58H97.7954V50.8965ZM102.354 56.604V58H106.307V56.604H102.354ZM106.307 52.3543V50.8965H102.305V52.3543H106.307ZM104.306 55.1586V53.7503H102.305V55.1586H104.306ZM107.917 50.8965H109.326L111.871 53.2932V55.1586L109.474 52.8979V58H107.917V50.8965ZM116.429 50.8965H115.033L112.476 53.2932V55.1586L114.873 52.8979V58H116.429V50.8965Z" fill="#1F3876"/>
<path d="M58.65 21.484H57.4653V23.3845H56.8976V21.484H55.8157V21.0192H58.65V21.484ZM60.2956 21.303L60.7645 21.0192H61.6119V21.5046H60.7974V21.9694H61.6119V22.4507H60.7645L60.2956 22.171V21.303ZM63.1298 22.2533L62.6444 21.9694H61.797V22.4507H62.6115V22.9197H61.8135V23.3845H62.6444L63.1298 23.1048V22.2533ZM60.8139 22.6358V22.9197H61.6119V23.3845H60.7769L60.2956 23.1048V22.6358H60.8139ZM63.1298 21.7843V21.303L62.6444 21.0192H61.797V21.5046H62.6115V21.7843H63.1298Z" fill="#EEEEEE"/>
<defs>
<filter id="filter0_d_9_16" x="35" y="4.11328" width="49.5538" height="49.5537" filterUnits="userSpaceOnUse" color-interpolation-filters="sRGB">
<feFlood flood-opacity="0" result="BackgroundImageFix"/>
<feColorMatrix in="SourceAlpha" type="matrix" values="0 0 0 0 0 0 0 0 0 0 0 0 0 0 0 0 0 0 127 0" result="hardAlpha"/>
<feOffset dy="2"/>
<feGaussianBlur stdDeviation="2"/>
<feComposite in2="hardAlpha" operator="out"/>
<feColorMatrix type="matrix" values="0 0 0 0 0.0162847 0 0 0 0 0.29815 0 0 0 0 0.558333 0 0 0 0.25 0"/>
<feBlend mode="normal" in2="BackgroundImageFix" result="effect1_dropShadow_9_16"/>
<feBlend mode="normal" in="SourceGraphic" in2="effect1_dropShadow_9_16" result="shape"/>
</filter>
</defs>
</svg>
